#!OML:ASF F:\VICON\USERDATA\INSTALL\rory3\rory3.ASF
:FULLY-SPECIFIED
:DEGREES
320
root 3.87859 17.0896 0.193508 10.7411 1.78518 -2.28339
lowerback -1.34771 -0.840016 -0.446069
upperback -1.17268 -1.11512 0.603517
thorax -0.424345 -0.552754 0.856696
lowerneck -6.91144 10.4451 7.90123
upperneck 44.9188 15.132 -0.880763
head 19.0595 7.32581 0.856743
rclavicle 1.56046e-014 -5.76476e-015
rhumerus -8.93934 11.6337 -54.7398
rradius 124.09
rwrist -53.3657
rhand -1.18292 -44.0399
rfingers 7.12502
rthumb 24.4569 -72.4986
lclavicle 1.56046e-014 -5.76476e-015
lhumerus 32.6629 -9.44994 33.9577
lradius 76.4139
lwrist 71.5591
lhand -23.2775 -18.3144
lfingers 7.12502
lthumb 3.17508 11.6417
rfemur -50.3169 7.95767 19.3204
rtibia 70.5715
rfoot 9.87585 -6.17009
rtoes -17.2399
lfemur -27.812 -2.99101 -25.6428
ltibia 38.6178
lfoot -18.9076 11.4403
ltoes 11.33
321
root 3.87006 17.0851 0.181037 10.8134 1.61176 -2.31452
lowerback -1.38336 -0.85939 -0.505789
upperback -1.12235 -1.14037 0.661351
thorax -0.350095 -0.565271 0.947959
lowerneck -6.07019 10.3763 8.33858
upperneck 44.0165 15.2703 -1.81898
head 18.4635 7.38214 0.282808
rclavicle -4.37326e-015 2.78299e-015
rhumerus -8.75032 11.8355 -55.3946
rradius 123.777
rwrist -53.3459
rhand -1.25034 -44.3046
rfingers 7.12502
rthumb 24.3922 -72.772
lclavicle -4.37326e-015 2.78299e-015
lhumerus 32.3185 -9.47314 34.6396
lradius 76.3618
lwrist 71.3385
lhand -23.2644 -17.6079
lfingers 7.12502
lthumb 3.18779 12.348
rfemur -50.5822 8.14928 19.4239
rtibia 70.6165
rfoot 10.1731 -6.3209
rtoes -17.7259
lfemur -28.0509 -2.88338 -25.5756
ltibia 38.773
lfoot -18.8794 11.4635
ltoes 11.3533
322
root 3.8587 17.0817 0.163594 10.9103 1.40731 -2.4562
lowerback -1.28973 -0.843682 -0.484625
upperback -1.13716 -1.11967 0.721212
thorax -0.41732 -0.554526 0.999282
lowerneck -5.63168 10.3532 8.64178
upperneck 43.5685 15.3601 -2.33811
head 18.193 7.42443 -0.0299786
rclavicle 1.96797e-014 -2.78299e-015
rhumerus -8.68936 11.9741 -56.03
rradius 123.559
rwrist -53.3898
rhand -1.49117 -43.8576
rfingers 7.12502
rthumb 24.1613 -72.3559
lclavicle 1.96797e-014 -2.78299e-015
lhumerus 32.004 -9.58642 35.2478
lradius 76.3777
lwrist 71.2508
lhand -23.2693 -16.7996
lfingers 7.12502
lthumb 3.18307 13.1564
rfemur -50.9374 8.41649 19.6545
rtibia 70.6799
rfoot 10.4636 -6.61778
rtoes -18.5382
lfemur -28.3777 -2.76126 -25.3684
ltibia 38.9517
lfoot -18.8387 11.4963
ltoes 11.7212
323
root 3.8485 17.0803 0.15449 10.9043 1.17547 -2.6768
lowerback -1.16754 -0.786998 -0.334406
upperback -1.13402 -1.04526 0.746087
thorax -0.486291 -0.517922 0.943136
lowerneck -5.16166 10.338 9.13805
upperneck 43.2216 15.4547 -2.89204
head 18.0139 7.49293 -0.381247
rclavicle -2.18663e-015 1.2921e-014
rhumerus -8.68119 12.0134 -56.7445
rradius 123.242
rwrist -53.4034
rhand -1.5928 -42.8872
rfingers 7.12502
rthumb 24.0639 -71.3985
lclavicle -2.18663e-015 1.2921e-014
lhumerus 31.7436 -9.82651 35.7015
lradius 76.2892
lwrist 71.2729
lhand -23.3602 -16.5474
lfingers 7.12502
lthumb 3.09524 13.4099
rfemur -51.0996 8.68163 19.9789
rtibia 70.7684
rfoot 10.6999 -6.99377
rtoes -18.2418
lfemur -28.5028 -2.53619 -25.1168
ltibia 39.1033
lfoot -18.8835 11.5502
ltoes 11.7923
324
root 3.84382 17.0742 0.150514 10.8043 1.00977 -2.64324
lowerback -1.02049 -0.768374 -0.317585
upperback -1.14067 -1.0207 0.678864
thorax -0.577429 -0.505678 0.867373
lowerneck -4.51055 10.3349 9.56025
upperneck 42.7934 15.5883 -3.43409
head 17.7358 7.57633 -0.720474
rclavicle -7.50412e-015 5.56597e-015
rhumerus -8.69882 12.0579 -57.4739
rradius 122.929
rwrist -53.7702
rhand -1.27857 -42.917
rfingers 7.12502
rthumb 24.3652 -71.3881
lclavicle -7.50412e-015 5.56597e-015
lhumerus 31.4532 -10.1485 36.1557
lradius 76.2745
lwrist 71.3094
lhand -23.5972 -16.4516
lfingers 7.12502
lthumb 2.86634 13.5089
rfemur -51.087 8.76157 20.0101
rtibia 70.912
rfoot 10.8864 -7.30851
rtoes -16.841
lfemur -28.423 -2.40604 -25.1736
ltibia 39.1797
lfoot -18.9924 11.6199
ltoes 11.5399
325
root 3.84162 17.0669 0.144414 10.6878 0.941993 -2.36856
lowerback -0.887146 -0.790617 -0.484058
upperback -1.10345 -1.05036 0.555973
thorax -0.612838 -0.51979 0.836411
lowerneck -4.30042 10.3592 9.54455
upperneck 42.6605 15.6391 -3.46428
head 17.6108 7.60013 -0.740395
rclavicle -1.59028e-015 -6.75868e-015
rhumerus -8.73191 12.0946 -58.2157
rradius 122.679
rwrist -54.0967
rhand -1.09559 -43.7329
rfingers 7.12502
rthumb 24.5406 -72.1803
lclavicle -1.59028e-015 -6.75868e-015
lhumerus 31.1436 -10.4411 36.6103
lradius 76.2592
lwrist 71.4184
lhand -23.5796 -15.806
lfingers 7.12502
lthumb 2.88337 14.1542
rfemur -51.0655 8.67023 19.7661
rtibia 71.0842
rfoot 10.952 -7.40388
rtoes -16.6349
lfemur -28.2823 -2.43643 -25.484
ltibia 39.1657
lfoot -18.9643 11.6894
ltoes 11.421
326
root 3.83891 17.0677 0.141588 10.6585 0.867315 -2.12759
lowerback -0.936227 -0.798339 -0.666217
upperback -0.964606 -1.06004 0.457609
thorax -0.441638 -0.524946 0.835655
lowerneck -4.86095 10.4226 9.18561
upperneck 43.019 15.6409 -3.06381
head 17.8634 7.5656 -0.458712
rclavicle -8.39865e-015 5.1684e-015
rhumerus -8.6308 12.0862 -58.9185
rradius 122.413
rwrist -53.7872
rhand -1.49644 -43.8359
rfingers 7.12502
rthumb 24.1563 -72.3349
lclavicle -8.39865e-015 5.1684e-015
lhumerus 30.8822 -10.5723 37.0498
lradius 76.248
lwrist 71.5847
lhand -23.2853 -14.5667
lfingers 7.12502
lthumb 3.16756 15.3896
rfemur -51.1481 8.59676 19.5391
rtibia 71.2247
rfoot 11.1036 -7.3372
rtoes -17.4898
lfemur -28.1864 -2.44528 -25.7584
ltibia 39.0918
lfoot -18.8553 11.7728
ltoes 11.2538
327
root 3.83763 17.0714 0.143508 10.6857 0.701657 -2.01946
lowerback -1.05527 -0.74553 -0.707113
upperback -0.871725 -0.988742 0.379505
thorax -0.281962 -0.490304 0.776527
lowerneck -7.5956 10.7661 7.34317
upperneck 45.6872 15.6091 -0.408754
head 19.6427 7.42349 1.34678
rclavicle 1.27222e-014 -8.34896e-015
rhumerus -8.55374 12.0479 -59.5534
rradius 122.033
rwrist -53.5131
rhand -1.71615 -43.4942
rfingers 7.12502
rthumb 23.9456 -72.021
lclavicle 1.27222e-014 -8.34896e-015
lhumerus 30.67 -10.7832 37.4723
lradius 76.2238
lwrist 71.6205
lhand -22.862 -14.5252
lfingers 7.12502
lthumb 3.57636 15.4245
rfemur -51.243 8.62642 19.4249
rtibia 71.3112
rfoot 11.4177 -7.2634
rtoes -17.7392
lfemur -28.1383 -2.36065 -25.9072
ltibia 39.0329
lfoot -18.8514 11.8402
ltoes 11.0957
328
root 3.83344 17.0674 0.141188 10.6812 0.488185 -1.94166
lowerback -1.05325 -0.677909 -0.762846
upperback -0.829906 -0.898146 0.323817
thorax -0.242039 -0.445195 0.751231
lowerneck -7.13485 10.6994 7.73791
upperneck 45.2167 15.6319 -0.993072
head 19.3502 7.45267 0.957411
rclavicle 4.22417e-015 -2.78299e-015
rhumerus -8.62092 12.0392 -60.2017
rradius 121.667
rwrist -53.6071
rhand -1.69224 -43.3271
rfingers 7.12502
rthumb 23.9685 -71.8509
lclavicle 4.22417e-015 -2.78299e-015
lhumerus 30.4924 -11.0746 37.9041
lradius 76.0955
lwrist 71.3541
lhand -22.5978 -15.2139
lfingers 7.12502
lthumb 3.83148 14.7314
rfemur -51.3307 8.74738 19.3413
rtibia 71.3902
rfoot 11.6383 -7.24536
rtoes -17.6824
lfemur -28.1225 -2.2587 -26.006
ltibia 39.0099
lfoot -18.8736 11.8898
ltoes 11.0999
329
root 3.82456 17.0605 0.132298 10.5934 0.358031 -2.00085
lowerback -0.90535 -0.654454 -0.76681
upperback -0.729291 -0.867672 0.342203
thorax -0.22216 -0.430328 0.773621
lowerneck -7.7614 10.7738 7.45525
upperneck 45.7676 15.677 -0.595984
head 19.7972 7.43177 1.27531
rclavicle -8.44835e-016 3.97569e-016
rhumerus -8.5612 12.0547 -60.8583
rradius 121.392
rwrist -53.6709
rhand -1.92246 -43.4425
rfingers 7.12502
rthumb 23.7478 -71.9951
lclavicle -8.44835e-016 3.97569e-016
lhumerus 30.2859 -11.1888 38.4326
lradius 76.0328
lwrist 70.8831
lhand -22.8845 -14.6967
lfingers 7.12502
lthumb 3.55464 15.2534
rfemur -51.3782 8.92006 19.4466
rtibia 71.4567
rfoot 11.7859 -7.3678
rtoes -17.4292
lfemur -28.0921 -2.17016 -25.9094
ltibia 39.0078
lfoot -18.8422 11.9117
ltoes 11.1532
330
root 3.81859 17.0622 0.127158 10.4289 0.30983 -2.06584
lowerback -0.727975 -0.663959 -0.68484
upperback -0.654999 -0.881862 0.327181
thorax -0.246696 -0.437897 0.713922
lowerneck -7.03818 10.6831 8.07579
upperneck 45.0955 15.7137 -1.45344
head 19.3727 7.48334 0.696287
rclavicle 1.01877e-014 -2.78299e-015
rhumerus -8.51649 12.1232 -61.566
rradius 121.127
rwrist -53.6484
rhand -2.15034 -43.6774
rfingers 7.12502
rthumb 23.5292 -72.2583
lclavicle 1.01877e-014 -2.78299e-015
lhumerus 29.9894 -11.4141 38.9258
lradius 76.0165
lwrist 70.6993
lhand -23.5321 -14.2407
lfingers 7.12502
lthumb 2.92923 15.7189
rfemur -51.272 8.991 19.5744
rtibia 71.4909
rfoot 12.016 -7.49531
rtoes -16.4508
lfemur -27.9248 -2.07359 -25.8181
ltibia 38.9912
lfoot -18.8787 11.8761
ltoes 11.2445
331
root 3.81541 17.0662 0.128554 10.3146 0.275341 -1.95017
lowerback -0.725286 -0.72034 -0.72082
upperback -0.650223 -0.957 0.247498
thorax -0.242778 -0.475537 0.652148
lowerneck -7.47202 10.7703 7.70487
upperneck 45.8149 15.7267 -0.825713
head 19.8288 7.46707 1.11887
rclavicle 5.96354e-016 -1.59028e-015
rhumerus -8.55709 12.3172 -62.303
rradius 120.764
rwrist -53.7397
rhand -2.06586 -43.7662
rfingers 7.12502
rthumb 23.6102 -72.3366
lclavicle 5.96354e-016 -1.59028e-015
lhumerus 29.5218 -11.8269 39.2985
lradius 75.9093
lwrist 70.91
lhand -24.0995 -14.953
lfingers 7.12502
lthumb 2.38131 15.0134
rfemur -51.1713 8.93229 19.4846
rtibia 71.5415
rfoot 12.2355 -7.55411
rtoes -15.284
lfemur -27.7478 -2.02172 -25.9436
ltibia 38.9507
lfoot -18.9504 11.8413
ltoes 11.3944
